<svg xmlns="http://www.w3.org/2000/svg" viewBox="0 0 352.24 108"><defs><style>.cls-1{fill:#fff;}.cls-2{isolation:isolate;}</style></defs><title>pixely_logo</title><g id="Layer_2" data-name="Layer 2"><g id="Layer_1-2" data-name="Layer 1"><path class="cls-1" d="M99,9V99H9V9H99m9-9H0V108H108V0Z"/><polygon class="cls-1" points="58.88 36 49.88 36 40.88 36 40.88 45 40.88 54 49.88 54 49.88 45 58.88 45 58.88 54 49.88 54 49.88 63 58.88 63 67.88 63 67.88 54 67.88 45 67.88 36 58.88 36"/><rect class="cls-1" x="40.88" y="63" width="9" height="9"/><g class="cls-2"><path class="cls-1" d="M148.4,42.8h15.36v16H153.2v6.4h-4.8Zm4.8,11.52H159v-7H153.2Z"/><path class="cls-1" d="M189.68,42.8h4.8V65.2h-4.8Z"/><path class="cls-1" d="M231.28,42.8h5.12L230.8,54l5.92,11.2H231.6l-3.84-7.68-3.84,7.68H218.8L224.72,54l-5.6-11.2h5.12l3.52,7.36Z"/><path class="cls-1" d="M261,42.8H274.8v4.48h-9v4.48h7v4.48h-7v4.48h9.28V65.2H261Z"/><path class="cls-1" d="M300.4,42.8h4.8V60.72h9.28V65.2H300.4Z"/><path class="cls-1" d="M340.72,57.2,334,42.8h5.12l4,9,4-9h5.12l-6.72,14.4v8h-4.8Z"/></g></g></g></svg>