<?xml version="1.0" encoding="utf-8"?>
<!-- Generator: Adobe Illustrator 22.1.0, SVG Export Plug-In . SVG Version: 6.00 Build 0)  -->
<svg version="1.1" id="_x2014_ÎÓÈ_x5F_4" xmlns="http://www.w3.org/2000/svg" xmlns:xlink="http://www.w3.org/1999/xlink"
	 x="0px" y="0px" width="400px" height="300px" viewBox="0 0 400 300" style="enable-background:new 0 0 400 300;"
	 xml:space="preserve">
<style type="text/css">
	.st0{fill:#B0D3FF;}
	.st1{fill:#0066FF;}
</style>
<g>
	<path class="st0" d="M125.3,118.1c-0.9,0-1.6,0.7-1.6,1.6c0,0.9,0.7,1.6,1.6,1.6c0.9,0,1.6-0.7,1.6-1.6
		C126.9,118.8,126.2,118.1,125.3,118.1z"/>
	<path class="st0" d="M147.4,118.1c-0.9,0-1.6,0.7-1.6,1.6c0,0.9,0.7,1.6,1.6,1.6c0.9,0,1.6-0.7,1.6-1.6
		C149,118.8,148.3,118.1,147.4,118.1z"/>
	<path class="st0" d="M246.6,112.9c-0.8,0-1.4,0.6-1.4,1.4c0,0.8,0.6,1.4,1.4,1.4c0.8,0,1.4-0.6,1.4-1.4
		C248,113.6,247.4,112.9,246.6,112.9z"/>
	<path class="st0" d="M266.5,112.9c-0.8,0-1.4,0.6-1.4,1.4c0,0.8,0.6,1.4,1.4,1.4c0.8,0,1.4-0.6,1.4-1.4
		C268,113.6,267.3,112.9,266.5,112.9z"/>
	<path class="st0" d="M94.1,171.5c-0.8,0-1.5,0.7-1.5,1.5c0,0.8,0.7,1.5,1.5,1.5c0.8,0,1.5-0.7,1.5-1.5
		C95.5,172.2,94.9,171.5,94.1,171.5z"/>
	<path class="st0" d="M294,167.1c-0.2,0-0.3,0-0.4,0.1c-0.6,0.2-1.1,0.8-1.1,1.5c0,0.7,0.4,1.2,1,1.4c0.2,0.1,0.4,0.1,0.6,0.1
		c0.9,0,1.6-0.7,1.6-1.6C295.5,167.8,294.8,167.1,294,167.1z"/>
	<path class="st0" d="M315.2,167.1c-0.9,0-1.6,0.7-1.6,1.6c0,0.9,0.7,1.6,1.6,1.6c0.9,0,1.6-0.7,1.6-1.6
		C316.7,167.8,316,167.1,315.2,167.1z"/>
	<circle class="st0" cx="181.7" cy="165.2" r="1.6"/>
	<circle class="st0" cx="203.7" cy="165.2" r="1.6"/>
</g>
<path class="st1" d="M141.7,111.3c-1.6,0-3,1.3-3,3c0,0.4,0.3,0.7,0.7,0.7c0.4,0,0.7-0.3,0.7-0.7c0-0.8,0.7-1.5,1.5-1.5
	c0.8,0,1.5,0.7,1.5,1.5c0,0.4,0.3,0.7,0.7,0.7c0.4,0,0.7-0.3,0.7-0.7C144.7,112.6,143.4,111.3,141.7,111.3z"/>
<path class="st1" d="M128.7,114.2c0,0.4,0.3,0.7,0.7,0.7c0.4,0,0.7-0.3,0.7-0.7c0-1.6-1.3-3-3-3c-1.6,0-3,1.3-3,3
	c0,0.4,0.3,0.7,0.7,0.7c0.4,0,0.7-0.3,0.7-0.7c0-0.8,0.7-1.5,1.5-1.5C128,112.7,128.7,113.4,128.7,114.2z"/>
<path class="st1" d="M139.7,120.6c-0.5,0-0.9,0.4-0.9,0.9c0,2.4-2,4.4-4.4,4.4c-2.4,0-4.4-2-4.4-4.4c0-0.5-0.4-0.9-0.9-0.9
	c-0.5,0-0.9,0.4-0.9,0.9c0,3.5,2.8,6.3,6.3,6.3c3.5,0,6.3-2.8,6.3-6.3C140.7,121,140.3,120.6,139.7,120.6z"/>
<path class="st1" d="M130.4,107.8c0-0.5-0.5-0.9-1-0.9l-5.6,0.3c-0.5,0-0.9,0.5-0.9,1c0,0.5,0.4,0.9,0.9,0.9c0,0,0,0,0,0l5.6-0.3
	C130,108.8,130.4,108.3,130.4,107.8z"/>
<path class="st1" d="M145.2,107.2l-5.6-0.3c-0.5,0-1,0.4-1,0.9c0,0.5,0.4,1,0.9,1l5.6,0.3c0,0,0,0,0,0c0.5,0,0.9-0.4,0.9-0.9
	C146.1,107.6,145.7,107.2,145.2,107.2z"/>
<circle class="st1" cx="261.2" cy="109.5" r="2"/>
<circle class="st1" cx="248.1" cy="109.5" r="2"/>
<path class="st1" d="M259.4,115.3h-9.6c-0.4,0-0.7,0.3-0.7,0.7c0,3,2.5,5.5,5.5,5.5c3,0,5.5-2.5,5.5-5.5
	C260.1,115.7,259.8,115.3,259.4,115.3z M254.6,120.1c-2,0-3.7-1.5-4-3.4h8.1C258.3,118.7,256.6,120.1,254.6,120.1z"/>
<path class="st1" d="M250.6,104.5c0-0.5-0.4-0.9-0.9-0.9h-4.9c-0.5,0-0.9,0.4-0.9,0.9c0,0.5,0.4,0.9,0.9,0.9h4.9
	C250.1,105.4,250.6,105,250.6,104.5z"/>
<path class="st1" d="M264.5,103.5h-4.9c-0.5,0-0.9,0.4-0.9,0.9c0,0.5,0.4,0.9,0.9,0.9h4.9c0.5,0,0.9-0.4,0.9-0.9
	C265.4,104,265,103.5,264.5,103.5z"/>
<path class="st1" d="M228.7,170.1v4.9c0,1,0.8,1.9,1.9,1.9s1.9-0.8,1.9-1.9v-4.9c0-1-0.8-1.9-1.9-1.9S228.7,169,228.7,170.1z"/>
<path class="st1" d="M88.3,165.2c-1.6,0-3,1.3-3,3c0,0.5,0.4,0.9,0.9,0.9c0.5,0,0.9-0.4,0.9-0.9c0-0.6,0.5-1.1,1.1-1.1
	c0.6,0,1.1,0.5,1.1,1.1c0,0.5,0.4,0.9,0.9,0.9c0.5,0,0.9-0.4,0.9-0.9C91.3,166.5,90,165.2,88.3,165.2z"/>
<path class="st1" d="M91.7,161.1h-5c-0.5,0-0.9,0.4-0.9,0.9c0,0.5,0.4,0.9,0.9,0.9h5c0.5,0,0.9-0.4,0.9-0.9
	C92.6,161.5,92.2,161.1,91.7,161.1z"/>
<path class="st1" d="M309.7,160.6c-1.6,0-2.9,1.3-2.9,2.9c0,0.4,0.3,0.7,0.7,0.7s0.7-0.3,0.7-0.7c0-0.8,0.6-1.4,1.4-1.4
	c0.8,0,1.4,0.6,1.4,1.4c0,0.4,0.3,0.7,0.7,0.7c0.4,0,0.7-0.3,0.7-0.7C312.5,161.9,311.3,160.6,309.7,160.6z"/>
<path class="st1" d="M297.9,163.5c0-1-0.7-1.8-1.6-2.1c-0.2,0-0.3-0.1-0.5-0.1c-1.2,0-2.1,1-2.1,2.1c0,1.2,1,2.1,2.1,2.1
	c0.2,0,0.5-0.1,0.7-0.1C297.3,165.2,297.9,164.4,297.9,163.5z"/>
<path class="st1" d="M307.8,169.5c-0.5,0-0.9,0.4-0.9,0.9c0,2.3-1.9,4.2-4.2,4.2c-2.3,0-4.2-1.9-4.2-4.2c0-0.5-0.4-0.9-0.9-0.9
	c-0.5,0-0.9,0.4-0.9,0.9c0,3.4,2.7,6.1,6.1,6.1c3.4,0,6.1-2.7,6.1-6.1C308.7,169.9,308.3,169.5,307.8,169.5z"/>
<path class="st1" d="M268.6,205.6c0.3-0.3,0.7-0.6,1.1-0.9c0.8-0.7,0.9-1.9,0.2-2.7c-0.7-0.8-1.9-0.9-2.7-0.2
	c-0.4,0.3-0.8,0.7-1.2,1c-0.8,0.7-0.8,1.9-0.1,2.7c0.4,0.4,0.9,0.6,1.4,0.6C267.7,206.1,268.2,205.9,268.6,205.6z"/>
<path class="st1" d="M314.6,191.8v-3.7c2.6-1.3,5-2.9,7.2-5c2.9-2.8,5-6.1,6.4-9.7c0.2,0.1,0.5,0.1,0.7,0.1c3.6,0,6.5-2.9,6.5-6.4
	c0-3.2-2.3-5.8-5.3-6.3V160c2.8-0.8,4.9-3.4,4.9-6.4v-2.3c0-17.8-14.5-32.2-32.2-32.2c-5,0-9.8,1.2-14,3.2v-18.1
	c0-18.8-15.3-34.1-34.1-34.1s-34.1,15.3-34.1,34.1v14.4c-2.9-2.2-6-3.9-9.4-5.1c-1-0.3-2.1,0.2-2.4,1.1c0,0.1,0,0.2-0.1,0.2
	c-0.2,0.9,0.3,1.8,1.2,2.2c4,1.4,7.6,3.6,10.7,6.4c0.8,0.8,1.6,1.6,2.4,2.4c-0.7,1.1-1.5,2.2-2.4,3.2c-6.5,7.9-16.4,12.7-26.8,12.7
	c-4.9,0-9.7-1-14.1-3c-0.1-0.1-0.2-0.1-0.3-0.2c-0.4-0.2-0.8-0.3-1.2-0.5c0,0,0,0,0,0c-0.8-0.2-1.5-0.4-2.3-0.4c-4.4,0-8,3.6-8,8
	c0,0.1,0,0.1,0,0.2c0,0.2,0,0.4,0,0.6c0,0.3,0.1,0.7,0.2,1c0,0.2,0.1,0.3,0.2,0.4c0.1,0.6,0.2,1.2,0.2,1.9c0,3-1.2,5.8-3.4,7.9
	c-2.3-2.4-3.6-5.7-3.6-9.1c0-4.8,2.6-9.2,6.8-11.6c0,0,0,0,0,0c1-0.6,1.8-1.4,2.3-2.4c0,0,0-0.1,0.1-0.1
	c4.9-11.7,16.2-19.2,28.9-19.2c1.1,0,2.3,0.1,3.4,0.2c1,0.1,1.8-0.5,2-1.5c0-0.1,0-0.1,0-0.2c0.1-1-0.6-2-1.7-2.1
	c-1.2-0.1-2.5-0.2-3.8-0.2c-14.2,0-26.9,8.5-32.4,21.5c-0.1,0.3-0.4,0.5-0.7,0.7c0,0,0,0,0,0c-4.7,2.6-7.8,7.2-8.6,12.3
	c-3.5-1.2-7.1-1.9-10.8-2.1v-4c2.7-1.3,5.3-3.1,7.5-5.3c3-2.9,5.2-6.3,6.7-10.1c0.1,0,0.2,0,0.4,0c3.7,0,6.7-3,6.7-6.7
	c0-3.1-2.2-5.8-5.1-6.5V97.5c1.4-0.8,2.7-1.8,3.9-2.8c0.4-0.4,0.7-0.9,0.7-1.5c-0.5-15.7-13.2-28-28.9-28c-6.1,0-12,1.9-16.9,5.5
	c0,0-0.1,0-0.1,0h-1.2c-3.9,0-7.7,1.1-10.9,3.3c-0.9,0.6-1.1,1.7-0.5,2.6c0.4,0.5,1,0.8,1.6,0.8c0.4,0,0.7-0.1,1-0.3
	c2.6-1.7,5.7-2.6,8.8-2.6h1.2c0.1,0,0.3,0,0.4,0c0.5,0.1,1.1,0,1.5-0.3c4.4-3.3,9.7-5.1,15.2-5.1c13.4,0,24.2,10.2,25.1,23.5
	c-4.4,3.5-10,5.5-15.7,5.5c-7.5,0-14.5-3.3-19.3-9c-0.7-0.8-1.9-0.9-2.7-0.2c0,0,0,0,0,0c-0.2,0.2-0.4,0.4-0.5,0.6
	c-3.2,6.2-9.5,10.1-16.5,10.1c-0.7,0-1.4-0.1-2.1-0.1c-1.7-2.6-2.6-5.6-2.6-8.8c0-3.6,1.2-7,3.4-9.9c0.6-0.8,0.5-2-0.3-2.6
	c-0.8-0.6-2-0.5-2.6,0.3c-2.8,3.5-4.2,7.7-4.2,12.2c0,4.2,1.3,8.2,3.8,11.6c0.1,0.1,0.2,0.3,0.3,0.4c0,0,0,0,0,0
	c0.1,0.1,0.2,0.2,0.3,0.2c0,0,0,0,0.1,0c0.1,0.1,0.2,0.1,0.3,0.1c0,0,0,0,0.1,0c0,0,0.1,0,0.1,0c0.1,0,0.2,0,0.4,0v8.7
	c-2.9,0.7-5.1,3.3-5.1,6.5c0,3.7,3,6.7,6.7,6.7c0.2,0,0.4,0,0.5-0.1c2.8,6.9,8.1,12.6,14.8,15.6v3.7c-4.2,0.3-8.4,1.1-12.3,2.6
	c-1.7-4-4.2-7.6-7.4-10.6c-6.4-6-14.8-9-23.6-8.4c-10.3,0.7-19.7,6.5-25,15.5c-0.5,0.9-0.2,2.1,0.7,2.6c0.1,0.1,0.3,0.1,0.4,0.2
	c0.8,0.2,1.7-0.1,2.2-0.8c4.7-8,12.9-13.1,22-13.7c7.7-0.5,15.1,2.1,20.8,7.4c5.6,5.3,8.7,12.5,8.7,20.2v21.6
	c0,6-4.8,10.8-10.8,10.8h-4.6c8.5-4.5,14.3-13.4,14.3-23.5v-5.2c0-3.4-0.6-6.7-1.9-9.8c0,0,0,0,0-0.1c0-0.1-0.1-0.1-0.1-0.2
	c0-0.1-0.1-0.1-0.1-0.2c0,0,0,0,0-0.1c0,0,0,0-0.1-0.1c0-0.1-0.1-0.1-0.1-0.1c0,0-0.1-0.1-0.1-0.1c0,0-0.1-0.1-0.1-0.1
	c-0.1,0-0.1-0.1-0.2-0.1c0,0-0.1,0-0.1-0.1c-0.1,0-0.1,0-0.2-0.1c-0.1,0-0.1,0-0.2,0c-0.1,0-0.1,0-0.2,0c-0.1,0-0.1,0-0.2,0
	c-0.1,0-0.1,0-0.2,0c-0.1,0-0.1,0-0.2,0c-0.1,0-0.1,0-0.2,0.1c0,0-0.1,0-0.1,0c0,0,0,0-0.1,0c-0.1,0-0.1,0.1-0.2,0.1
	c-0.1,0-0.1,0.1-0.1,0.1c0,0,0,0-0.1,0c-2.7,2.1-5.9,3.1-9.2,3.1c-4.3,0-8.3-1.8-11.2-5c0,0,0,0,0,0c-0.3-0.4-0.8-0.6-1.3-0.6
	c0,0-0.1,0-0.1,0c0,0-0.1,0-0.1,0c0,0-0.1,0-0.1,0c-0.1,0-0.1,0-0.2,0c-0.1,0-0.1,0-0.2,0.1c0,0-0.1,0-0.1,0.1
	c-0.1,0-0.1,0.1-0.2,0.1c0,0-0.1,0-0.1,0.1c-0.1,0-0.1,0.1-0.2,0.1c0,0,0,0-0.1,0c0,0,0,0-0.1,0.1c-0.1,0.1-0.1,0.1-0.2,0.2
	c0,0-0.1,0.1-0.1,0.1c0,0.1-0.1,0.1-0.1,0.2c0,0.1-0.1,0.1-0.1,0.2c0,0.1,0,0.1-0.1,0.2c0,0.1,0,0.1,0,0.2c0,0.1,0,0.1,0,0.2
	c0,0.1,0,0.1,0,0.2c0,0,0,0.1,0,0.1c0,0.8,0.1,1.5,0.1,2.3c0,18.5-13.4,34.1-31,37.5c4.7-4.7,7.4-11.1,7.4-17.9c0-2.4-0.3-4.7-1-6.9
	c0-0.2-0.1-0.3-0.2-0.4c-0.8-2.8-1.1-5.7-0.9-8.7c0.1-2.2,0.5-4.4,1.2-6.5c0.3-0.9-0.1-1.8-1-2.2c-0.1,0-0.2-0.1-0.3-0.1
	c-1-0.3-2,0.3-2.4,1.2c-0.7,2.4-1.2,4.9-1.3,7.5c-0.2,4,0.3,7.9,1.6,11.6c0.3,1.5,0.5,3.1,0.5,4.7c0,7.8-4.2,15-11,18.8c0,0,0,0,0,0
	c-0.1,0.1-0.2,0.1-0.3,0.2c0,0,0,0,0,0c-0.1,0.1-0.1,0.1-0.2,0.2c0,0,0,0,0,0.1c-0.1,0.1-0.1,0.2-0.2,0.2c0,0,0,0,0,0.1
	c0,0.1-0.1,0.2-0.1,0.3c0,0,0,0.1,0,0.1c0,0.1,0,0.2,0,0.2c0,0,0,0.1,0,0.1c0,0,0,0.1,0,0.1c0,0,0,0.1,0,0.1c0,0.1,0,0.1,0,0.2
	c0,0.1,0,0.1,0,0.2c0,0.1,0,0.1,0,0.2c0,0.1,0.1,0.1,0.1,0.2c0,0,0,0.1,0,0.1c0,0,0,0,0,0c0.1,0.1,0.1,0.2,0.2,0.3
	c0,0,0.1,0.1,0.1,0.1c0.1,0.1,0.2,0.2,0.3,0.2c0.1,0,0.1,0.1,0.2,0.1c0.1,0,0.2,0.1,0.2,0.1c0.1,0,0.1,0,0.2,0.1c0.1,0,0.2,0,0.3,0
	c0.1,0,0.1,0,0.2,0c0,0,0,0,0.1,0c8.5-0.2,16.4-2.9,22.9-7.4c2.5,2.1,5.4,3.6,8.4,4.6v3.7h-9.2c-14.6,0-26.5,11.9-26.5,26.5v16.8
	v3.7h86.2v-3.7v-16.8c0-5.2-1.5-10.2-4.3-14.5c-0.6-0.9-1.7-1.1-2.6-0.5c-0.9,0.6-1.1,1.7-0.5,2.6c2.4,3.7,3.7,8,3.7,12.5v16.8
	h-13.5v-11.1c0-1-0.8-1.9-1.9-1.9s-1.9,0.8-1.9,1.9v11.1h-43v-11.1c0-1-0.8-1.9-1.9-1.9s-1.9,0.8-1.9,1.9v11.1H41.7v-16.8
	c0-12.6,10.2-22.8,22.8-22.8h9.4c0.9,3.5,4,6,7.8,6c3.7,0,6.9-2.6,7.8-6h8.2c5.8,0,11.3,2.2,15.5,6.1c0.4,0.3,0.8,0.5,1.3,0.5
	c0.5,0,1-0.2,1.4-0.6c0.7-0.8,0.7-2-0.1-2.7c-4.9-4.6-11.3-7.1-18.1-7.1h-7.9v-1.7h8.8c8,0,14.6-6.5,14.6-14.6V159
	c0-3-0.4-6-1.3-8.8c3.6-1.4,7.4-2.2,11.2-2.4c0.9,5.7,5.9,10,11.8,10c0.9,0,1.7-0.1,2.5-0.3c1-0.2,1.7-1.2,1.4-2.2
	c-0.2-1-1.2-1.7-2.2-1.4c-0.6,0.1-1.1,0.2-1.7,0.2c-4.5,0-8.2-3.7-8.2-8.2v-4.1c2.2,0.7,4.6,1,7,1.1c0.3,0,0.5,0,0.8,0
	c3,0,5.8-0.5,8.6-1.3v4.3c0,1.7-0.5,3.4-1.5,4.8c-0.6,0.8-0.4,2,0.4,2.6c0.3,0.2,0.7,0.4,1.1,0.4c0.6,0,1.2-0.3,1.5-0.8
	c1.1-1.5,1.8-3.2,2.1-5c3.7,0.2,7.4,1,10.9,2.3c0.2,2.9,1.2,5.6,2.8,8c-1.9,1.2-3,3.3-3,5.6c0,3.7,3,6.7,6.7,6.7
	c0.2,0,0.3,0,0.5-0.1c2.4,6.1,6.8,11.2,12.4,14.4h-16.1c-2.5,0-4.9,0.8-6.8,2.2c-1.1,0.8-2.1,1.8-2.9,2.9c-1.4,1.9-2.2,4.3-2.2,6.8
	v9c-0.4,0.1-0.7,0.3-0.9,0.6c-1.1,1.4-2.1,2.8-2.9,4.3c-0.5,0.9-0.2,2,0.6,2.6c0.3,0.2,0.6,0.3,1,0.3c0.6,0,1.3-0.3,1.6-0.9
	c0.2-0.4,0.4-0.7,0.7-1v24.5v4.2h-2.5v-1.6c0-3.2-1.4-6.1-3.7-8c0.2-4.2,1.1-8.3,2.7-12.2c0.4-1-0.1-2.1-1.1-2.4
	c-1-0.4-2.1,0.1-2.4,1.1c-1.5,3.7-2.4,7.6-2.8,11.6c-1-0.3-2.1-0.5-3.2-0.5c-5.8,0-10.5,4.7-10.5,10.5v1.7v1.7c0,1,0.8,1.9,1.9,1.9
	h11.6h5.6h5.5h62.6h1.7h18.3h11.2v-3.6v-7.5c0-10.6-3.7-20.3-10-27.8v-8.4c0-1.8-0.4-3.5-1.1-5.1v-7.5c0-1-0.8-1.9-1.9-1.9
	s-1.9,0.8-1.9,1.9v2.9c1.3,0.5,2.3,1.5,2.7,2.8c-0.8-1.1-1.7-2-2.7-2.8c0,0-0.1-0.1-0.1-0.1c-1.9-1.4-4.3-2.2-6.8-2.2h-6.5v-10
	c0.8-1.4,1.6-2.8,2.1-4.3c0.1,0,0.2,0,0.4,0c3.7,0,6.7-3,6.7-6.7c0-3.1-2.2-5.8-5.1-6.5v-5.4c4.1-5.8,10.8-9.5,18.3-9.5h9.3
	c0.9,3.4,4,6,7.7,6s6.8-2.5,7.7-6h8c0.5,0,1,0,1.5,0.1c-0.8,2.9-1.3,5.9-1.3,9.1l0.1,2.2c0,3,2,5.6,4.8,6.4v0.8
	c-3,0.5-5.3,3.2-5.3,6.3c0,3.6,2.9,6.4,6.4,6.4c0.3,0,0.6-0.1,0.9-0.2c2.7,6.7,7.8,12.1,14.2,15.1v3.4c-4.2,0.3-8.4,1.2-12.3,2.7
	v-10c0-1-0.8-1.9-1.9-1.9s-1.9,0.8-1.9,1.9v11.6c-1.1,0.6-2.2,1.2-3.3,1.9c-0.9,0.6-1.1,1.7-0.6,2.6c0.4,0.6,1,0.9,1.6,0.9
	c0.3,0,0.7-0.1,1-0.3c5.3-3.3,11.3-5.3,17.6-5.7c0.9,5.4,5.7,9.6,11.4,9.6c5.7,0,10.4-4.1,11.4-9.6c19.5,1.3,35.2,17.8,35.2,37.6v7
	h-19.5v-9.4c0-1-0.8-1.9-1.9-1.9s-1.9,0.8-1.9,1.9v9.4h-46.5v-9.4c0-1-0.8-1.9-1.9-1.9s-1.9,0.8-1.9,1.9v9.4h-19.5v-7
	c0-8.6,2.8-16.7,8.1-23.4c0.6-0.8,0.5-2-0.3-2.6c-0.8-0.6-2-0.5-2.6,0.3c-5.9,7.4-9,16.3-9,25.7v7v1.9c0,1,0.8,1.9,1.9,1.9h96.8
	c1,0,1.9-0.8,1.9-1.9v-1.9v-7C353.4,211.4,336.1,193.2,314.6,191.8z M162.9,115.6c0.8,0.5,1.4,1.4,1.4,2.4c0,1.3-0.9,2.4-2.1,2.8
	C162.6,119.1,162.8,117.4,162.9,115.6z M104.6,118.1c0-1,0.6-1.9,1.4-2.5c0.1,1.8,0.4,3.5,0.8,5.2
	C105.6,120.6,104.6,119.4,104.6,118.1z M85.9,198.6c0,2.3-1.9,4.3-4.3,4.3c-2.3,0-4.3-1.9-4.3-4.3V194c1.4,0.2,2.8,0.4,4.3,0.4
	c0.2,0,0.3,0,0.5,0c1.3,0,2.5-0.1,3.7-0.3V198.6z M82.1,190.6c-4.9,0.1-9.7-1.5-13.7-4.5c3.1-2.6,5.8-5.6,8-8.9
	c0.9,2,2.9,3.4,5.3,3.4c3.2,0,5.8-2.6,5.8-5.8c0-0.5-0.4-0.9-0.9-0.9h-8.1c3-5.5,4.8-11.7,5.1-18.2c3.1,2.1,6.8,3.3,10.7,3.3
	c3.3,0,6.5-0.9,9.4-2.5c0.6,2,0.9,4.1,0.9,6.2v5.2C104.4,180.1,94.4,190.4,82.1,190.6z M77.8,175.7h7.6c-0.4,1.7-2,3-3.8,3
	C79.8,178.7,78.2,177.4,77.8,175.7z M133.8,139c-13.2-0.4-24-11.7-24-25.3v-10.6c7.3-0.2,13.9-3.9,17.9-9.9
	c5.4,5.4,12.7,8.5,20.4,8.5c3.8,0,7.6-0.8,11.1-2.2v14.9c0,6.7-2.7,13-7.5,17.7C146.9,136.7,140.5,139.2,133.8,139z M161,163.6
	c0-1,0.5-2,1.4-2.5c0.1,1.8,0.4,3.6,0.8,5.2C161.9,166.1,161,165,161,163.6z M229.9,240.1h-14.6h-3.8h-58.9V240v-2.3h58.9h3.8h14.6
	v2.3V240.1z M129,238.4c0-3.7,3-6.8,6.8-6.8c1.1,0,2.1,0.3,3,0.7c2.2,1.1,3.7,3.4,3.7,6v1.6h-3.7H129V238.4z M233.6,235.8v-24.6
	c4,6.2,6.2,13.5,6.2,21.4v7.3h-6.2V235.8z M221.8,188.4c3,0,5.5,1.6,7,4c0.6,1,1,2.2,1.1,3.5c0,0.2,0,0.4,0,0.7v4.4v5.4v27.6h-14.6
	h-3.8h-58.9v-37.5c0-4.5,3.6-8.1,8.1-8.1h30.2h20.6h3.8H221.8z M205,184.6c2-1.2,4-2.6,5.7-4.3c0.3-0.3,0.5-0.5,0.8-0.8v5.1H205z
	 M220.6,163.6c0,1.3-0.9,2.4-2.1,2.8c0.4-1.7,0.6-3.4,0.7-5.2C220.1,161.7,220.6,162.6,220.6,163.6z M220.5,144.9
	c-0.4,0.4-0.8,0.7-1.2,1.1v-2c0-1-0.8-1.9-1.9-1.9c-0.3,0-0.6,0.1-0.8,0.2c-0.6,0.3-1,0.9-1,1.7v6.7v9.2c0,0.4,0,0.8,0,1.2
	c0,0.9-0.1,1.7-0.3,2.6c-0.5,3.5-1.8,6.9-3.8,9.8c-1,1.5-2.1,2.8-3.4,4.1c-4.8,4.7-11.2,7.2-17.9,7c-12.6-0.3-22.8-10.3-23.9-23
	c3.7-2.8,5.8-7.1,5.8-11.7c0-1.3-0.2-2.6-0.5-3.8c0-0.1,0-0.2,0-0.3c0-2.3,1.9-4.3,4.3-4.3c0.4,0,0.8,0.1,1.2,0.2
	c5.3,2.6,10.9,3.9,16.8,3.9c8.2,0,16.2-2.7,22.7-7.4c1.4-1.1,2.8-2.2,4.1-3.4V144.9z M331.6,167.1c0,1.3-1,2.4-2.3,2.6
	c0.4-1.7,0.6-3.4,0.7-5.1C331,165.1,331.6,166,331.6,167.1z M258.7,140.2c0,2.3-1.9,4.2-4.2,4.2c-2.3,0-4.2-1.9-4.2-4.2v-4.5
	c1.4,0.2,2.8,0.4,4.2,0.4c0.2,0,0.3,0,0.5,0c1.2,0,2.5-0.1,3.7-0.3V140.2z M255,132.3c-5.9,0.1-11.5-2.2-15.9-6.4
	c-4.4-4.4-7-10.4-7-16.5v-4.5c0-1.3,0.1-2.6,0.3-3.8c0.1,0,0.3,0,0.4,0c5.4,0,10.2-2.8,12.9-7.3c4,4.2,9.5,6.6,15.3,6.6
	c0.7,0,1.5,0,2.2-0.1c4.3-0.4,8.2-2.2,11.5-4.9c1.4,3,2.2,6.2,2.2,9.6v5.1C277,122,267.1,132.1,255,132.3z M270.3,138.4h-7.8v-3.6
	c10.5-3.4,18.3-13.4,18.3-24.9v-5.1c0-4.8-1.3-9.5-3.8-13.6c0,0,0,0,0,0c0-0.1-0.1-0.1-0.1-0.2c0,0-0.1-0.1-0.1-0.1c0,0,0,0-0.1-0.1
	c0,0-0.1,0-0.1-0.1c0,0-0.1-0.1-0.1-0.1c-0.1,0-0.1-0.1-0.2-0.1c0,0-0.1,0-0.1-0.1c-0.1,0-0.1,0-0.2-0.1c-0.1,0-0.1,0-0.2,0
	c-0.1,0-0.1,0-0.2,0c-0.1,0-0.1,0-0.2,0c-0.1,0-0.1,0-0.2,0c-0.1,0-0.1,0-0.2,0c-0.1,0-0.1,0-0.2,0c-0.1,0-0.1,0-0.2,0.1
	c-0.1,0-0.1,0.1-0.2,0.1c0,0-0.1,0-0.1,0c0,0,0,0-0.1,0c-0.1,0-0.1,0.1-0.2,0.1c0,0-0.1,0.1-0.1,0.1c0,0,0,0-0.1,0
	c-2.9,3.1-6.8,5.1-11,5.5c-0.6,0.1-1.2,0.1-1.8,0.1c-5.6,0-11-2.8-14.2-7.4c-0.2-0.3-0.5-0.6-0.9-0.7c-0.2-0.1-0.4-0.1-0.6-0.1
	c0,0,0,0,0,0c-0.1,0-0.2,0-0.3,0c0,0,0,0-0.1,0c-0.1,0-0.2,0.1-0.3,0.1c0,0,0,0-0.1,0c-0.1,0-0.2,0.1-0.3,0.2c0,0,0,0,0,0
	c0,0,0,0,0,0c-0.1,0.1-0.2,0.1-0.2,0.2c0,0,0,0-0.1,0.1c0,0-0.1,0.1-0.1,0.1c0,0.1-0.1,0.1-0.1,0.2c0,0,0,0,0,0.1
	c-0.1,0.1-0.1,0.2-0.1,0.3c0,0,0,0,0,0c-1.6,4.6-5.9,7.6-10.7,7.6c-0.6,0-1.1,0-1.6-0.1c0,0-0.1,0-0.1,0c-0.1,0-0.1,0-0.2,0
	c0,0-0.1,0-0.1,0c-0.1,0-0.2,0-0.2,0c0,0-0.1,0-0.1,0c-0.1,0-0.2,0.1-0.2,0.1c0,0-0.1,0-0.1,0c-0.1,0-0.1,0.1-0.2,0.1
	c0,0-0.1,0-0.1,0.1c-0.1,0.1-0.1,0.1-0.2,0.2c0,0-0.1,0.1-0.1,0.1c-0.1,0.1-0.1,0.1-0.1,0.2c0,0,0,0.1-0.1,0.1
	c0,0.1-0.1,0.1-0.1,0.2c0,0.1,0,0.1-0.1,0.2c0,0,0,0.1,0,0.1c-0.5,2.1-0.8,4.2-0.8,6.3v4.5c0,7.2,3,14.2,8.1,19.2
	c2.9,2.9,6.4,5,10.1,6.2v3.6h-9c-4.9,0-9.5,1.3-13.4,3.7v-11.7c0.9-1.2,1.8-2.4,2.6-3.8c0.4-0.7,0.3-1.5-0.2-2.1
	c-0.8-0.9-1.6-1.8-2.4-2.7v-17.6c0-16.7,13.6-30.3,30.3-30.3c16.7,0,30.3,13.6,30.3,30.3v20.2c-5.2,3.5-9.3,8.4-11.8,14.2
	C272.2,138.5,271.2,138.4,270.3,138.4z M273.8,167.1c0-1.1,0.7-2.1,1.6-2.5c0.1,1.8,0.4,3.5,0.8,5.1
	C274.8,169.6,273.8,168.5,273.8,167.1z M310.8,193.6c0,4.3-3.5,7.8-7.8,7.8c-4.3,0-7.8-3.5-7.8-7.8v-1.8l0.1-2c2.1,0.6,4.3,1,6.6,1
	c0.3,0,0.5,0,0.8,0c2.8,0,5.5-0.4,8.1-1.2V193.6z M302,187.1c-2.3-0.1-4.4-0.5-6.5-1.1c-1.3-0.4-2.5-1-3.7-1.6
	c-7.5-4.1-12.7-12.2-12.7-21.4v-4.4c3-2.9,5.2-6.4,6.6-10.3c0.2-0.7,0.4-1.3,0.6-2c1.8,1.5,3.7,2.8,5.8,3.8
	c3.5,1.7,7.5,2.6,11.5,2.6c2.4,0,4.8-0.3,7.2-1c1-0.3,1.6-1.3,1.3-2.3c-0.3-1-1.3-1.6-2.3-1.3c-2,0.6-4.1,0.8-6.1,0.8
	c-5.5,0-10.8-2-14.9-5.6c-0.7-0.6-1.5-1.3-2.1-2.1c-0.4-0.5-1-0.7-1.6-0.6c-0.4,0-0.7,0.2-1,0.5c-0.2,0.2-0.4,0.5-0.5,0.8
	c-0.1,0.2-0.1,0.4-0.1,0.6c0,0.1-0.1,0.2-0.1,0.4c-0.1,1-0.4,2-0.6,2.9c-1.1,3.9-3.3,7.5-6.3,10.4c-1.1-0.4-1.8-1.5-1.8-2.8
	l-0.1-2.2c0-2.9,0.4-5.8,1.3-8.4c0.4-1.2,0.8-2.4,1.4-3.5c1.9-4,4.6-7.5,8-10.2c1.2-1,2.4-1.8,3.8-2.6c4.1-2.4,8.9-3.7,14-3.7
	c15.7,0,28.5,12.8,28.5,28.4v2.3c0,1.2-0.8,2.3-1.9,2.7c-3.6-3.3-6-7.7-6.9-12.5c0,0,0,0,0,0c0,0,0,0,0,0c0,0,0,0,0,0
	c0-0.1-0.1-0.2-0.1-0.3c0,0,0-0.1,0-0.1c0-0.1-0.1-0.2-0.1-0.2c0,0-0.1-0.1-0.1-0.1c0-0.1-0.1-0.1-0.1-0.2c0,0,0,0,0,0
	c0,0,0,0-0.1-0.1c-0.2-0.2-0.5-0.4-0.8-0.4c-0.3-0.1-0.6-0.1-0.8,0c-0.1,0-0.2,0.1-0.3,0.1c0,0,0,0,0,0c-0.1,0-0.2,0.1-0.3,0.2
	c0,0,0,0,0,0c-0.1,0.1-0.2,0.2-0.3,0.3c-1.3,1.2-2.7,2.3-4.2,3.1c-0.9,0.5-1.2,1.7-0.7,2.6c0.4,0.6,1,0.9,1.6,0.9
	c0.3,0,0.7-0.1,1-0.3c0.9-0.5,1.7-1.1,2.5-1.7c1.3,4.2,3.7,8.1,6.8,11.2v4.9c0,6.4-2.5,12.4-7.1,16.9
	C314.5,184.9,308.5,187.3,302,187.1z"/>
<path class="st1" d="M297.9,158.3c0.5,0,0.9-0.5,0.9-1c0-0.5-0.5-0.9-1-0.9l-2.7,0.1l-2.7,0.1c-0.5,0-0.9,0.4-0.9,0.9
	c0,0,0,0.1,0,0.1c0,0.2,0.1,0.4,0.2,0.5c0.2,0.2,0.4,0.4,0.7,0.4c0,0,0,0,0,0l3.2-0.2L297.9,158.3z"/>
<path class="st1" d="M313,156.6l-5.4-0.3c-0.5,0-1,0.4-1,0.9c0,0.5,0.4,1,0.9,1l5.4,0.3c0,0,0,0,0,0c0.5,0,0.9-0.4,0.9-0.9
	C313.9,157.1,313.5,156.7,313,156.6z"/>
<path class="st1" d="M198.1,157.6c-1.2,0-2.2,1-2.2,2.2c0,1.2,1,2.2,2.2,2.2c1.2,0,2.2-1,2.2-2.2
	C200.4,158.6,199.4,157.6,198.1,157.6z"/>
<path class="st1" d="M185.8,159.8c0-1.2-1-2.2-2.2-2.2c-1.2,0-2.2,1-2.2,2.2c0,1.2,1,2.2,2.2,2.2C184.8,162,185.8,161,185.8,159.8z"
	/>
<path class="st1" d="M196.1,166.1c-0.5,0-0.9,0.4-0.9,0.9c0,2.4-2,4.4-4.4,4.4c-2.4,0-4.4-2-4.4-4.4c0-0.5-0.4-0.9-0.9-0.9
	c-0.5,0-0.9,0.4-0.9,0.9c0,3.5,2.8,6.3,6.3,6.3s6.3-2.8,6.3-6.3C197,166.6,196.6,166.1,196.1,166.1z"/>
<path class="st1" d="M186.1,154.1c0-0.5-0.4-0.9-0.9-0.9h-5.5c-0.5,0-0.9,0.4-0.9,0.9c0,0.5,0.4,0.9,0.9,0.9h5.5
	C185.7,155.1,186.1,154.7,186.1,154.1z"/>
<path class="st1" d="M201.8,153.2h-5.5c-0.5,0-0.9,0.4-0.9,0.9c0,0.5,0.4,0.9,0.9,0.9h5.5c0.5,0,0.9-0.4,0.9-0.9
	C202.8,153.6,202.3,153.2,201.8,153.2z"/>
<g>
	<g>
		<path class="st1" d="M367.3,243.9h-2.1c-1.1,0-2-0.9-2-2c0-1.1,0.9-2,2-2h2.1c1.1,0,2,0.9,2,2C369.3,243,368.4,243.9,367.3,243.9z
			"/>
	</g>
	<g>
		<path class="st1" d="M359.8,243.9H34.6c-1.1,0-2-0.9-2-2c0-1.1,0.9-2,2-2h325.2c1.1,0,2,0.9,2,2
			C361.8,243,360.9,243.9,359.8,243.9z"/>
	</g>
	<g>
		<path class="st1" d="M27.6,243.9H24c-1.1,0-2-0.9-2-2c0-1.1,0.9-2,2-2h3.7c1.1,0,2,0.9,2,2C29.6,243,28.8,243.9,27.6,243.9z"/>
	</g>
</g>
<path class="st1" d="M254.6,120.9c-2.9,0-5.3-2.2-5.5-5h11C259.9,118.6,257.5,120.9,254.6,120.9z"/>
<g>
	<rect x="184.8" y="215.2" class="st1" width="4.3" height="4.1"/>
	<polygon class="st1" points="184.8,203 184.8,211.2 189.1,211.2 189.1,207.1 193.3,207.1 193.3,211.2 189.1,211.2 189.1,215.2 
		197.6,215.2 197.6,203 	"/>
</g>
</svg>
