<?xml version="1.0" encoding="utf-8"?>
<!-- Generator: Adobe Illustrator 22.1.0, SVG Export Plug-In . SVG Version: 6.00 Build 0)  -->
<svg version="1.1" id="Layer_1" xmlns="http://www.w3.org/2000/svg" xmlns:xlink="http://www.w3.org/1999/xlink" x="0px" y="0px"
	 viewBox="0 0 149 41" style="enable-background:new 0 0 149 41;" xml:space="preserve">
<style type="text/css">
	.st0{fill:#0066FF;}
	.st1{fill:#FFFFFF;}
</style>
<path class="st0" d="M6,0h137c3.3,0,6,2.7,6,6v29c0,3.3-2.7,6-6,6H6c-3.3,0-6-2.7-6-6V6C0,2.7,2.7,0,6,0z"/>
<path class="st1" d="M71.4,26.6h-1.5l1.1-2.8l-2.3-5.7h1.5l1.4,3.9l1.4-3.9h1.5L71.4,26.6z M65.8,24.2c-0.5,0-1-0.2-1.5-0.6V24h-1.5
	v-8.5h1.5v3c0.5-0.4,1-0.5,1.5-0.5c1.6,0,2.7,1.3,2.7,3.1S67.4,24.2,65.8,24.2z M65.5,19.3c-0.4,0-0.8,0.2-1.2,0.5v2.5
	c0.4,0.4,0.8,0.5,1.2,0.5c0.8,0,1.4-0.7,1.4-1.8C66.9,20,66.3,19.3,65.5,19.3z M56.7,23.6c-0.5,0.4-1,0.6-1.5,0.6
	c-1.6,0-2.7-1.3-2.7-3.1s1.1-3.1,2.7-3.1c0.5,0,1,0.2,1.5,0.5v-3h1.5V24h-1.5V23.6z M56.7,19.8c-0.3-0.4-0.8-0.5-1.2-0.5
	c-0.9,0-1.5,0.7-1.5,1.8c0,1.1,0.6,1.8,1.5,1.8c0.4,0,0.8-0.2,1.2-0.5V19.8z M47.7,21.5c0.1,0.9,0.8,1.5,1.8,1.5
	c0.5,0,1.1-0.2,1.8-0.6v1.3c-0.7,0.3-1.3,0.5-2,0.5c-1.8,0-3-1.3-3-3.1c0-1.8,1.2-3,2.9-3c1.5,0,2.6,1.2,2.6,2.9c0,0.2,0,0.4,0,0.6
	H47.7z M49,19.2c-0.7,0-1.3,0.5-1.4,1.4h2.6C50.2,19.7,49.7,19.2,49,19.2z M43.7,20.1V24h-1.5v-5.9h1.5v0.6c0.4-0.5,0.9-0.7,1.5-0.7
	c0.2,0,0.3,0,0.5,0.1v1.3c-0.2,0-0.4-0.1-0.5-0.1C44.6,19.3,44.1,19.6,43.7,20.1z M37,21.5c0.1,0.9,0.8,1.5,1.8,1.5
	c0.5,0,1.1-0.2,1.8-0.6v1.3c-0.7,0.3-1.3,0.5-2,0.5c-1.8,0-3-1.3-3-3.1c0-1.8,1.2-3,2.9-3c1.5,0,2.6,1.2,2.6,2.9c0,0.2,0,0.4,0,0.6
	H37z M38.3,19.2c-0.7,0-1.3,0.5-1.4,1.4h2.6C39.5,19.7,39,19.2,38.3,19.2z M31.7,24l-1.2-4l-1.2,4h-1.4l-2-5.9h1.5l1.2,4l1.2-4h1.4
	l1.2,4l1.2-4h1.5l-2,5.9H31.7z M22.5,24.2c-1.8,0-3-1.3-3-3.1c0-1.8,1.3-3.1,3-3.1c1.8,0,3,1.3,3,3.1C25.5,22.9,24.3,24.2,22.5,24.2
	z M22.5,19.3c-0.9,0-1.5,0.7-1.5,1.8c0,1.1,0.6,1.8,1.5,1.8c0.9,0,1.5-0.7,1.5-1.8C24,20,23.3,19.3,22.5,19.3z M15.8,21.1h-1.4V24
	H13v-8.1h2.9c1.7,0,2.8,1.1,2.8,2.6C18.7,20.1,17.5,21.1,15.8,21.1z M15.6,17.2h-1.1v2.7h1.1c0.9,0,1.5-0.6,1.5-1.4
	C17.1,17.7,16.5,17.2,15.6,17.2z"/>
<path class="st1" d="M136.8,21.9h-7.2c0.2,1.7,1.4,2.2,2.9,2.2c1.5,0,2.6-0.3,3.6-0.8v3c-1,0.6-2.3,1-4.1,1c-3.6,0-6.1-2.3-6.1-6.7
	c0-3.8,2.1-6.8,5.7-6.8c3.5,0,5.4,3,5.4,6.8C136.9,20.9,136.8,21.7,136.8,21.9z M131.5,16.8c-0.9,0-2,0.7-2,2.4h3.8
	C133.4,17.5,132.4,16.8,131.5,16.8z M120,27.2c-1.3,0-2.1-0.5-2.6-0.9l0,4.2l-3.7,0.8l0-17.3h3.3l0.2,0.9c0.5-0.5,1.5-1.2,2.9-1.2
	c2.6,0,5.1,2.3,5.1,6.7C125.1,25.1,122.6,27.2,120,27.2z M119.1,17c-0.9,0-1.4,0.3-1.8,0.7l0,5.5c0.4,0.4,0.9,0.7,1.7,0.7
	c1.4,0,2.3-1.5,2.3-3.5C121.4,18.5,120.5,17,119.1,17z M108.4,14h3.7v13h-3.7V14z M108.4,9.8l3.7-0.8v3l-3.7,0.8V9.8z M104.6,18.2
	V27h-3.7V14h3.2l0.2,1.1c0.9-1.6,2.6-1.3,3.1-1.1v3.4C106.9,17.2,105.5,17,104.6,18.2z M96.8,22.4c0,2.2,2.3,1.5,2.8,1.3v3
	c-0.5,0.3-1.4,0.5-2.6,0.5c-2.2,0-3.8-1.6-3.8-3.8l0-11.9l3.6-0.8l0,3.2h2.8v3.2h-2.8V22.4z M92.3,23.1c0,2.7-2.1,4.2-5.2,4.2
	c-1.3,0-2.7-0.2-4.1-0.8v-3.5c1.2,0.7,2.8,1.2,4.1,1.2c0.8,0,1.4-0.2,1.4-0.9c0-1.8-5.6-1.1-5.6-5.2c0-2.6,2-4.2,5-4.2
	c1.2,0,2.5,0.2,3.7,0.7v3.5c-1.1-0.6-2.6-1-3.7-1c-0.8,0-1.3,0.2-1.3,0.8C86.6,19.4,92.3,18.6,92.3,23.1z"/>
</svg>
